<svg width="100" height="100" viewBox="0 0 100 100" fill="none" xmlns="http://www.w3.org/2000/svg">
<rect width="100" height="100" fill="#8870FF"/>
<path d="M40.0044 77.512L25.0855 70.2498V56.5425L45.352 66.3203C56.4985 71.6981 65.726 76.2057 65.8575 76.3372C66.1117 76.5913 55.7813 84.8167 55.2415 84.79C55.0665 84.7813 48.2098 81.5062 40.0044 77.512V77.512ZM49.5428 57.5067L25.5747 45.9411L25.2873 38.9648L25 31.9885L32.1354 35.2984C36.0598 37.1188 47.0848 42.3872 56.6354 47.0058L74 55.4034V62.2782C74 66.0594 73.89 69.1349 73.7554 69.1127C73.6209 69.0904 62.7252 63.8677 49.5428 57.5067V57.5067ZM53.1617 34.5918L32.8125 24.6409L38.3775 20.3204L43.9426 16L58.9713 23.4959L74 30.9917V37.8438C74 41.6124 73.89 44.6614 73.7554 44.6192C73.6209 44.5771 64.3537 40.0647 53.1617 34.5918L53.1617 34.5918Z" fill="white"/>
</svg>
