<svg width="49" height="69" viewBox="0 0 49 69" fill="none" xmlns="http://www.w3.org/2000/svg">
<path d="M15.0044 61.512L0.085508 54.2498V40.5425L20.352 50.3203C31.4985 55.6981 40.726 60.2057 40.8575 60.3372C41.1117 60.5913 30.7813 68.8167 30.2415 68.79C30.0665 68.7813 23.2098 65.5062 15.0044 61.512V61.512ZM24.5428 41.5067L0.574652 29.9411L0.287326 22.9648L0 15.9885L7.13535 19.2984C11.0598 21.1188 22.0848 26.3872 31.6354 31.0058L49 39.4034V46.2782C49 50.0594 48.8899 53.1349 48.7554 53.1127C48.6209 53.0904 37.7252 47.8677 24.5428 41.5067ZM28.1617 18.5918L7.81246 8.64089L13.3775 4.32045L18.9426 0L33.9713 7.49586L49 14.9917V21.8438C49 25.6124 48.8899 28.6614 48.7554 28.6192C48.6209 28.5771 39.3537 24.0647 28.1617 18.5918L28.1617 18.5918Z" fill="#8870FF"/>
</svg>
