<?xml version="1.0" standalone="no"?>
<!DOCTYPE svg PUBLIC "-//W3C//DTD SVG 20010904//EN"
 "http://www.w3.org/TR/2001/REC-SVG-20010904/DTD/svg10.dtd">
<svg version="1.0" xmlns="http://www.w3.org/2000/svg"
 width="1104.000000pt" height="1104.000000pt" viewBox="0 0 1104.000000 1104.000000"
 preserveAspectRatio="xMidYMid meet">
<metadata>
Created by potrace 1.14, written by Peter Selinger 2001-2017
</metadata>
<g transform="translate(0.000000,1104.000000) scale(0.100000,-0.100000)"
fill="#000000" stroke="none">
<path d="M4615 11029 c-5 -5 -39 -32 -75 -59 -36 -28 -76 -59 -90 -70 -14 -11
-135 -105 -270 -210 -135 -104 -251 -194 -258 -201 -7 -6 -52 -41 -100 -77
-48 -37 -94 -72 -102 -79 -35 -29 -183 -143 -275 -213 -55 -41 -110 -85 -123
-97 -12 -13 -26 -23 -30 -23 -4 0 -21 -14 -39 -30 -18 -17 -36 -30 -42 -30 -5
0 -11 -3 -13 -8 -1 -4 -52 -45 -113 -92 -60 -46 -112 -87 -115 -90 -3 -3 -31
-25 -62 -48 l-57 -44 117 -57 c307 -152 430 -211 440 -211 6 0 12 -3 14 -7 2
-5 55 -33 118 -63 63 -30 117 -58 118 -62 2 -5 9 -8 15 -8 6 0 65 -27 131 -59
361 -177 682 -334 851 -416 105 -51 324 -158 488 -239 164 -80 303 -146 308
-146 5 0 9 -4 9 -10 0 -5 5 -10 11 -10 6 0 90 -39 187 -86 98 -47 211 -102
252 -122 41 -20 77 -40 78 -44 2 -4 9 -8 16 -8 6 0 68 -28 136 -61 167 -82
490 -240 735 -359 110 -54 299 -146 420 -206 121 -59 222 -108 225 -109 3 -1
93 -44 200 -97 986 -483 1185 -579 1196 -577 4 0 10 -3 13 -8 3 -5 58 -33 121
-63 63 -30 166 -80 230 -111 63 -31 118 -54 122 -50 24 21 32 365 33 1310 l0
865 -335 167 c-184 92 -668 333 -1075 535 -407 203 -743 373 -746 377 -3 5 -8
8 -10 6 -2 -1 -190 91 -418 204 -228 114 -420 207 -427 207 -7 0 -14 4 -16 8
-3 7 -1335 676 -1348 677 -3 0 -11 4 -18 8 -17 11 -411 207 -414 207 -2 -1 -7
-5 -13 -11z"/>
<path d="M1605 8362 c3 -64 7 -171 10 -237 7 -172 15 -371 20 -508 2 -65 7
-122 10 -127 3 -5 1 -11 -5 -15 -6 -4 -8 -11 -4 -16 6 -10 9 -52 19 -299 2
-63 7 -173 10 -245 3 -71 8 -191 11 -265 3 -74 7 -173 9 -220 1 -47 3 -106 4
-133 l1 -47 113 -54 c61 -29 186 -89 277 -133 91 -44 175 -84 188 -87 12 -4
22 -12 22 -17 0 -5 5 -9 10 -9 6 0 30 -9 52 -20 23 -11 48 -20 55 -20 7 0 13
-4 13 -10 0 -5 4 -10 9 -10 10 0 313 -143 341 -161 8 -5 22 -12 30 -16 8 -3
85 -40 170 -81 85 -42 157 -76 160 -77 5 -1 62 -28 375 -180 205 -99 437 -212
605 -292 63 -31 179 -87 257 -124 78 -38 146 -69 151 -69 5 0 15 -7 22 -15 6
-8 15 -14 18 -13 4 1 78 -33 166 -75 87 -42 162 -77 167 -77 5 0 9 -4 9 -10 0
-5 6 -10 13 -10 6 0 63 -25 124 -55 62 -30 117 -55 122 -55 5 0 14 -7 21 -15
6 -8 15 -14 18 -12 7 1 27 -8 292 -136 185 -89 407 -196 585 -282 72 -34 193
-93 270 -130 77 -37 199 -96 270 -130 174 -83 374 -180 575 -278 91 -44 197
-94 236 -112 38 -18 126 -61 194 -94 68 -34 128 -61 133 -61 5 0 23 -10 40
-22 18 -13 34 -23 37 -22 5 1 130 -58 375 -176 83 -40 191 -92 240 -115 124
-59 447 -213 665 -318 58 -28 107 -51 110 -51 7 -2 120 -55 152 -72 24 -13 27
-13 33 5 7 22 14 96 21 221 3 47 7 506 11 1020 l5 935 -148 72 c-366 177 -546
264 -634 306 -52 25 -187 90 -300 145 -113 55 -270 131 -350 169 -80 39 -217
105 -305 148 -88 43 -214 103 -280 135 -66 32 -205 99 -310 150 -330 161 -477
230 -486 230 -5 0 -9 5 -9 10 0 6 -5 10 -12 10 -7 0 -64 26 -128 57 -63 31
-117 58 -120 58 -3 1 -52 24 -110 52 -118 57 -417 202 -530 257 -41 20 -81 36
-87 36 -7 0 -13 5 -13 10 0 6 -4 10 -10 10 -11 0 -143 61 -150 70 -3 3 -21 12
-40 20 -19 8 -127 58 -240 113 -245 119 -328 157 -339 157 -5 0 -14 7 -21 15
-7 8 -21 15 -31 15 -9 0 -24 7 -33 15 -8 8 -19 15 -24 15 -4 0 -36 14 -70 30
-34 17 -67 30 -72 30 -6 0 -10 5 -10 10 0 6 -4 10 -9 10 -5 0 -56 22 -113 49
-173 82 -526 250 -858 409 -52 25 -97 46 -100 47 -5 1 -113 53 -305 146 -49
23 -92 43 -95 43 -3 1 -30 13 -60 28 -181 87 -256 122 -260 123 -5 1 -71 31
-185 86 -38 18 -72 34 -75 35 -3 0 -34 14 -70 31 -89 42 -204 95 -270 126 -56
25 -166 77 -295 138 -38 18 -72 33 -75 34 -3 0 -41 17 -84 39 -44 21 -90 42
-103 47 l-23 8 5 -117z"/>
<path d="M1615 3456 c0 -602 2 -1096 5 -1098 3 -3 34 -18 70 -35 81 -39 483
-234 735 -358 105 -51 276 -134 380 -184 105 -51 197 -96 205 -101 8 -6 26
-15 39 -21 33 -13 211 -100 506 -245 132 -65 242 -118 245 -119 3 0 82 -38
175 -84 229 -112 374 -181 381 -181 3 0 12 -7 21 -15 8 -8 18 -13 23 -10 4 3
13 -2 20 -10 7 -8 17 -15 22 -15 5 0 78 -33 161 -74 84 -40 217 -105 297 -144
80 -38 204 -98 275 -133 72 -34 132 -63 135 -64 3 -1 71 -33 152 -72 80 -39
156 -74 167 -78 12 -3 21 -11 21 -17 0 -6 2 -9 5 -6 3 3 60 -21 126 -53 66
-33 122 -59 124 -59 2 0 79 -36 170 -80 91 -44 167 -80 169 -80 2 0 46 -20 97
-44 102 -48 105 -48 175 -2 21 15 47 32 57 39 19 12 113 80 132 94 6 4 64 48
130 98 66 49 126 95 133 102 7 7 16 13 20 13 4 0 21 13 37 28 17 15 46 39 65
52 19 13 37 27 40 30 3 3 25 21 50 40 25 19 59 47 75 62 17 15 34 28 38 28 5
0 14 6 21 13 7 6 32 28 56 47 120 97 376 305 386 315 6 5 31 26 55 47 124 103
160 134 251 221 l82 78 -30 18 c-51 31 -609 305 -616 303 -5 -1 -8 3 -8 8 0 5
-3 9 -7 8 -5 -1 -116 51 -248 116 -421 208 -530 260 -537 258 -5 -1 -8 3 -8 8
0 6 -4 10 -10 10 -14 0 -145 63 -148 72 -2 4 -10 8 -17 8 -7 0 -76 31 -152 68
-281 140 -337 167 -343 168 -12 1 -125 60 -131 67 -3 5 -8 7 -10 6 -2 -2 -47
18 -99 43 -103 50 -414 199 -470 226 -19 9 -48 26 -65 37 -16 11 -31 19 -33
17 -1 -2 -40 14 -85 36 -252 122 -436 211 -547 264 -69 33 -188 91 -265 128
-698 338 -1008 487 -1062 511 -18 7 -33 17 -33 21 0 5 -6 8 -13 8 -7 0 -49 18
-92 39 -44 21 -105 51 -136 65 -30 14 -59 29 -63 33 -4 5 -11 8 -14 8 -9 1
-80 35 -297 141 -99 48 -182 88 -185 89 -3 1 -52 24 -110 52 -58 28 -177 85
-265 127 -88 42 -167 81 -175 86 -8 6 -22 13 -30 17 -8 3 -61 28 -118 54 -56
27 -104 49 -105 49 -2 0 -3 -492 -2 -1094z"/>
</g>
</svg>
